<svg width="172" height="40" viewBox="0 0 172 40" fill="none" xmlns="http://www.w3.org/2000/svg">
<g clip-path="url(#clip0_22_86)">
<path d="M6.47819 15.3918C6.77839 13.4404 8.45739 12 10.4317 12H29.5683C31.5426 12 33.2216 13.4404 33.5218 15.3918L35.5821 28.7835C36.3276 33.6296 32.5782 38 27.6751 38L12.3249 38C7.42181 38 3.67237 33.6296 4.41792 28.7835L6.47819 15.3918Z" stroke="#FF7733" stroke-width="4" stroke-linejoin="round"/>
<circle cx="15" cy="18" r="2" fill="#FFBD5C"/>
<circle cx="25" cy="18" r="2" fill="#FFBD5C"/>
<path d="M24 8V6C24 3.79086 22.2091 2 20 2V2C17.7909 2 16 3.79086 16 6V8" stroke="#FFBD5C" stroke-width="4"/>
</g>
<path d="M64.1797 14.8281C64.1797 15.5052 64.0156 16.0938 63.6875 16.5938C63.3594 17.0938 62.8802 17.4792 62.25 17.75C61.625 18.0208 60.8646 18.1562 59.9688 18.1562C59.5729 18.1562 59.1849 18.1302 58.8047 18.0781C58.4297 18.026 58.0677 17.9505 57.7188 17.8516C57.375 17.7474 57.0469 17.6198 56.7344 17.4688V15.2188C57.276 15.4583 57.8385 15.6745 58.4219 15.8672C59.0052 16.0599 59.5833 16.1562 60.1562 16.1562C60.5521 16.1562 60.8698 16.1042 61.1094 16C61.3542 15.8958 61.5312 15.7526 61.6406 15.5703C61.75 15.388 61.8047 15.1797 61.8047 14.9453C61.8047 14.6589 61.7083 14.4141 61.5156 14.2109C61.3229 14.0078 61.0573 13.8177 60.7188 13.6406C60.3854 13.4635 60.0078 13.2734 59.5859 13.0703C59.3203 12.9453 59.0312 12.7943 58.7188 12.6172C58.4062 12.4349 58.1094 12.2135 57.8281 11.9531C57.5469 11.6927 57.3151 11.3776 57.1328 11.0078C56.9557 10.6328 56.8672 10.1849 56.8672 9.66406C56.8672 8.98177 57.0234 8.39844 57.3359 7.91406C57.6484 7.42969 58.0938 7.0599 58.6719 6.80469C59.2552 6.54427 59.9427 6.41406 60.7344 6.41406C61.3281 6.41406 61.8932 6.48438 62.4297 6.625C62.9714 6.76042 63.5365 6.95833 64.125 7.21875L63.3438 9.10156C62.8177 8.88802 62.3464 8.72396 61.9297 8.60938C61.513 8.48958 61.0885 8.42969 60.6562 8.42969C60.3542 8.42969 60.0964 8.47917 59.8828 8.57812C59.6693 8.67188 59.5078 8.80729 59.3984 8.98438C59.2891 9.15625 59.2344 9.35677 59.2344 9.58594C59.2344 9.85677 59.3125 10.0859 59.4688 10.2734C59.6302 10.4557 59.8698 10.6328 60.1875 10.8047C60.5104 10.9766 60.9115 11.1771 61.3906 11.4062C61.974 11.6823 62.4714 11.9714 62.8828 12.2734C63.2995 12.5703 63.6198 12.9219 63.8438 13.3281C64.0677 13.7292 64.1797 14.2292 64.1797 14.8281ZM75.6094 18H73.1953V13.0703H68.6719V18H66.25V6.57812H68.6719V11.0547H73.1953V6.57812H75.6094V18ZM88.8672 12.2734C88.8672 13.1536 88.7578 13.9557 88.5391 14.6797C88.3203 15.3984 87.987 16.0182 87.5391 16.5391C87.0964 17.0599 86.5339 17.4609 85.8516 17.7422C85.1693 18.0182 84.362 18.1562 83.4297 18.1562C82.4974 18.1562 81.6901 18.0182 81.0078 17.7422C80.3255 17.4609 79.7604 17.0599 79.3125 16.5391C78.8698 16.0182 78.5391 15.3958 78.3203 14.6719C78.1016 13.9479 77.9922 13.1432 77.9922 12.2578C77.9922 11.0755 78.1849 10.0469 78.5703 9.17188C78.9609 8.29167 79.5599 7.60938 80.3672 7.125C81.1745 6.64062 82.2005 6.39844 83.4453 6.39844C84.6849 6.39844 85.7031 6.64062 86.5 7.125C87.3021 7.60938 87.8958 8.29167 88.2812 9.17188C88.6719 10.0521 88.8672 11.0859 88.8672 12.2734ZM80.5312 12.2734C80.5312 13.0703 80.6302 13.7578 80.8281 14.3359C81.0312 14.9089 81.3464 15.3516 81.7734 15.6641C82.2005 15.9714 82.7526 16.125 83.4297 16.125C84.1172 16.125 84.6745 15.9714 85.1016 15.6641C85.5286 15.3516 85.8385 14.9089 86.0312 14.3359C86.2292 13.7578 86.3281 13.0703 86.3281 12.2734C86.3281 11.0755 86.1042 10.1328 85.6562 9.44531C85.2083 8.75781 84.4714 8.41406 83.4453 8.41406C82.763 8.41406 82.2057 8.57031 81.7734 8.88281C81.3464 9.1901 81.0312 9.63281 80.8281 10.2109C80.6302 10.7839 80.5312 11.4714 80.5312 12.2734ZM94.8828 6.57812C96.3568 6.57812 97.4323 6.89583 98.1094 7.53125C98.7865 8.16146 99.125 9.03125 99.125 10.1406C99.125 10.6406 99.0495 11.1198 98.8984 11.5781C98.7474 12.0312 98.5 12.4349 98.1562 12.7891C97.8177 13.1432 97.3646 13.4245 96.7969 13.6328C96.2292 13.8359 95.5286 13.9375 94.6953 13.9375H93.6562V18H91.2344V6.57812H94.8828ZM94.7578 8.5625H93.6562V11.9531H94.4531C94.9062 11.9531 95.2995 11.8932 95.6328 11.7734C95.9661 11.6536 96.224 11.4661 96.4062 11.2109C96.5885 10.9557 96.6797 10.6276 96.6797 10.2266C96.6797 9.66406 96.5234 9.2474 96.2109 8.97656C95.8984 8.70052 95.4141 8.5625 94.7578 8.5625ZM104.93 6.57812C106.404 6.57812 107.479 6.89583 108.156 7.53125C108.833 8.16146 109.172 9.03125 109.172 10.1406C109.172 10.6406 109.096 11.1198 108.945 11.5781C108.794 12.0312 108.547 12.4349 108.203 12.7891C107.865 13.1432 107.411 13.4245 106.844 13.6328C106.276 13.8359 105.576 13.9375 104.742 13.9375H103.703V18H101.281V6.57812H104.93ZM104.805 8.5625H103.703V11.9531H104.5C104.953 11.9531 105.346 11.8932 105.68 11.7734C106.013 11.6536 106.271 11.4661 106.453 11.2109C106.635 10.9557 106.727 10.6276 106.727 10.2266C106.727 9.66406 106.57 9.2474 106.258 8.97656C105.945 8.70052 105.461 8.5625 104.805 8.5625ZM111.328 18V6.57812H113.75V18H111.328ZM126.758 18H123.68L118.711 9.35938H118.641C118.661 9.71875 118.68 10.0807 118.695 10.4453C118.711 10.8099 118.727 11.1745 118.742 11.5391C118.758 11.8984 118.773 12.2604 118.789 12.625V18H116.625V6.57812H119.68L124.641 15.1328H124.695C124.685 14.7786 124.672 14.4271 124.656 14.0781C124.641 13.7292 124.625 13.3802 124.609 13.0312C124.599 12.6823 124.589 12.3333 124.578 11.9844V6.57812H126.758V18ZM133.977 11.5859H138.508V17.5078C137.909 17.7057 137.286 17.8646 136.641 17.9844C135.995 18.099 135.263 18.1562 134.445 18.1562C133.31 18.1562 132.346 17.9323 131.555 17.4844C130.763 17.0365 130.161 16.375 129.75 15.5C129.339 14.625 129.133 13.5495 129.133 12.2734C129.133 11.0755 129.362 10.0391 129.82 9.16406C130.284 8.28906 130.958 7.61198 131.844 7.13281C132.734 6.65365 133.82 6.41406 135.102 6.41406C135.706 6.41406 136.302 6.47917 136.891 6.60938C137.479 6.73958 138.013 6.90885 138.492 7.11719L137.688 9.05469C137.339 8.8776 136.94 8.72917 136.492 8.60938C136.044 8.48958 135.576 8.42969 135.086 8.42969C134.383 8.42969 133.771 8.59115 133.25 8.91406C132.734 9.23698 132.333 9.6901 132.047 10.2734C131.766 10.8516 131.625 11.5339 131.625 12.3203C131.625 13.0651 131.727 13.7266 131.93 14.3047C132.133 14.8776 132.453 15.3281 132.891 15.6562C133.328 15.9792 133.898 16.1406 134.602 16.1406C134.945 16.1406 135.234 16.125 135.469 16.0938C135.708 16.0573 135.932 16.0208 136.141 15.9844V13.6016H133.977V11.5859ZM62.2891 24.4297C61.8255 24.4297 61.4141 24.5208 61.0547 24.7031C60.7005 24.8802 60.401 25.138 60.1562 25.4766C59.9167 25.8151 59.7344 26.224 59.6094 26.7031C59.4844 27.1823 59.4219 27.7214 59.4219 28.3203C59.4219 29.1276 59.5208 29.8177 59.7188 30.3906C59.9219 30.9583 60.2344 31.3932 60.6562 31.6953C61.0781 31.9922 61.6224 32.1406 62.2891 32.1406C62.7526 32.1406 63.2161 32.0885 63.6797 31.9844C64.1484 31.8802 64.6562 31.7318 65.2031 31.5391V33.5703C64.6979 33.7786 64.2005 33.9271 63.7109 34.0156C63.2214 34.1094 62.6719 34.1562 62.0625 34.1562C60.8854 34.1562 59.9167 33.9141 59.1562 33.4297C58.401 32.9401 57.8411 32.2578 57.4766 31.3828C57.112 30.5026 56.9297 29.4766 56.9297 28.3047C56.9297 27.4401 57.0469 26.6484 57.2812 25.9297C57.5156 25.2109 57.8594 24.5885 58.3125 24.0625C58.7656 23.5365 59.3255 23.1302 59.9922 22.8438C60.6589 22.5573 61.4245 22.4141 62.2891 22.4141C62.8568 22.4141 63.4245 22.487 63.9922 22.6328C64.5651 22.7734 65.112 22.9688 65.6328 23.2188L64.8516 25.1875C64.4245 24.9844 63.9948 24.8073 63.5625 24.6562C63.1302 24.5052 62.7057 24.4297 62.2891 24.4297ZM74.6328 34L73.8047 31.2812H69.6406L68.8125 34H66.2031L70.2344 22.5312H73.1953L77.2422 34H74.6328ZM73.2266 29.25L72.3984 26.5938C72.3464 26.4167 72.276 26.1901 72.1875 25.9141C72.1042 25.6328 72.0182 25.349 71.9297 25.0625C71.8464 24.7708 71.7786 24.5182 71.7266 24.3047C71.6745 24.5182 71.6016 24.7839 71.5078 25.1016C71.4193 25.4141 71.3333 25.7109 71.25 25.9922C71.1667 26.2734 71.1068 26.474 71.0703 26.5938L70.25 29.25H73.2266ZM82.0156 22.5781C83.0521 22.5781 83.9062 22.7031 84.5781 22.9531C85.2552 23.2031 85.7578 23.5807 86.0859 24.0859C86.4141 24.5911 86.5781 25.2292 86.5781 26C86.5781 26.5208 86.4792 26.9766 86.2812 27.3672C86.0833 27.7578 85.8229 28.0885 85.5 28.3594C85.1771 28.6302 84.8281 28.8516 84.4531 29.0234L87.8125 34H85.125L82.3984 29.6172H81.1094V34H78.6875V22.5781H82.0156ZM81.8438 24.5625H81.1094V27.6484H81.8906C82.6927 27.6484 83.2656 27.5156 83.6094 27.25C83.9583 26.9792 84.1328 26.5833 84.1328 26.0625C84.1328 25.5208 83.9453 25.1354 83.5703 24.9062C83.2005 24.6771 82.625 24.5625 81.8438 24.5625ZM93.6562 34H91.2344V24.5938H88.1328V22.5781H96.7578V24.5938H93.6562V34Z" fill="#023A6B"/>
<defs>
<clipPath id="clip0_22_86">
<rect width="40" height="40" fill="white"/>
</clipPath>
</defs>
</svg>
