<svg width="4" height="12" viewBox="0 0 4 12" fill="none" xmlns="http://www.w3.org/2000/svg">
<path d="M3.24399 3.024C2.92325 3.36533 2.5063 3.536 1.99313 3.536C1.47995 3.536 1.05842 3.36533 0.728522 3.024C0.407789 2.68267 0.247423 2.26133 0.247423 1.76C0.247423 1.25867 0.407789 0.842667 0.728522 0.512C1.05842 0.170667 1.47995 0 1.99313 0C2.5063 0 2.92325 0.170667 3.24399 0.512C3.57388 0.842667 3.73883 1.25867 3.73883 1.76C3.73883 2.26133 3.57388 2.68267 3.24399 3.024ZM0.343643 12C0.114548 12 0 11.888 0 11.664V11.6C0 11.4613 0.0916381 11.248 0.274914 10.96C0.467354 10.6613 0.563574 10.368 0.563574 10.08V7.504C0.563574 7.216 0.467354 6.93333 0.274914 6.656C0.0916381 6.368 0 6.16533 0 6.048V5.984C0 5.84533 0.114548 5.712 0.343643 5.584L2.69416 4.24C2.89576 4.13333 3.05613 4.12267 3.17526 4.208C3.30355 4.29333 3.3677 4.42667 3.3677 4.608V10.08C3.3677 10.368 3.47308 10.6613 3.68385 10.96C3.89462 11.248 4 11.4613 4 11.6V11.664C4 11.888 3.88545 12 3.65636 12H0.343643Z" fill="#023A6B"/>
</svg>
